<?xml version="1.0" encoding="UTF-8"?>
<svg id="Layer_1" data-name="Layer 1" xmlns="http://www.w3.org/2000/svg" viewBox="0 0 1920 1080">
  <path d="M353.86,0l-56.92,160.28h26.81L380.67,0h-26.81ZM1453.96,456.36c-2.51-1.78-5.55-2.69-9.1-2.69-3.2,0-6.54.91-9.92,2.69-3.37,1.77-5.63,4.81-6.71,9.09l-40.15,113.04h26.81l40.15-113.04c1.78-4.28,1.43-7.32-1.08-9.09ZM741.25,877.42c-2.51-1.77-5.55-2.68-9.1-2.68-3.2,0-6.54.91-9.91,2.68-3.38,1.78-5.64,4.81-6.72,9.1l-40.14,113.04h26.81l40.14-113.04c1.78-4.29,1.43-7.32-1.08-9.1ZM744.89,37.12c-2.51-1.78-5.54-2.69-9.09-2.69-3.21,0-6.54.91-9.92,2.69-3.38,1.77-5.63,4.81-6.71,9.09l-40.15,113.04h26.81l40.15-113.04c1.77-4.28,1.43-7.32-1.09-9.09ZM1453.96,456.36c-2.51-1.78-5.55-2.69-9.1-2.69-3.2,0-6.54.91-9.92,2.69-3.37,1.77-5.63,4.81-6.71,9.09l-40.15,113.04h26.81l40.15-113.04c1.78-4.28,1.43-7.32-1.08-9.09ZM1453.96,456.36c-2.51-1.78-5.55-2.69-9.1-2.69-3.2,0-6.54.91-9.92,2.69-3.37,1.77-5.63,4.81-6.71,9.09l-40.15,113.04h26.81l40.15-113.04c1.78-4.28,1.43-7.32-1.08-9.09ZM741.25,877.42c-2.51-1.77-5.55-2.68-9.1-2.68-3.2,0-6.54.91-9.91,2.68-3.38,1.78-5.64,4.81-6.72,9.1l-40.14,113.04h26.81l40.14-113.04c1.78-4.29,1.43-7.32-1.08-9.1ZM1453.96,456.36c-2.51-1.78-5.55-2.69-9.1-2.69-3.2,0-6.54.91-9.92,2.69-3.37,1.77-5.63,4.81-6.71,9.09l-40.15,113.04h26.81l40.15-113.04c1.78-4.28,1.43-7.32-1.08-9.09ZM1453.96,456.36c-2.51-1.78-5.55-2.69-9.1-2.69-3.2,0-6.54.91-9.92,2.69-3.37,1.77-5.63,4.81-6.71,9.09l-40.15,113.04h26.81l40.15-113.04c1.78-4.28,1.43-7.32-1.08-9.09ZM1644.36,450.33c4.1-12.13,9.65-22.87,16.66-32.14,7-9.31,14.93-17.07,23.76-23.35,8.82-6.23,18.24-10.87,28.19-13.94,9.96-3.03,19.94-4.55,29.95-4.55h177.08v-11.2h-104.35l44.72-125.01h-26.81l-44.68,125.01h-172.07L1745.85,0h-12.19l-129.05,365.15h-153.8l-18.24-78.26h-4.8l-71.86,78.26h-153.8L1331.12,0h-20.76c.79,9.03-.76,19.41-4.71,31.09l-31.35,90.1h-171.38l26.14-74.04c1.71-4.28,1.32-7.32-1.22-9.09-2.54-1.78-5.59-2.69-9.18-2.69-3.21,0-6.48.91-9.88,2.69-3.35,1.77-5.55,4.81-6.53,9.09l-82.23,228.52c-2.09,4.98-1.96,8.1.4,9.36,2.32,1.25,5.1,1.86,8.35,1.86,3.55,0,7-.61,10.41-1.86,3.35-1.26,5.9-4.38,7.6-9.36l34.74-98.56h171.52l-39.87,114.11c-4.1,12.47-9.6,23.3-16.65,32.4-6.96,9.14-14.9,16.8-23.73,23.04-8.87,6.28-18.23,10.91-28.19,13.94-9.96,3.04-19.77,4.55-29.43,4.55h-222.4c-10.01,0-19-1.51-26.88-4.55-7.93-3.03-14.24-7.66-18.97-13.94-4.73-6.24-7.62-13.9-8.67-23.04-1.06-9.1.47-19.93,4.56-32.4L935.3,31.09c3.95-11.68,9.25-22.06,15.89-31.09h-23.11c.5,8.81-1.23,18.88-5.22,30.14l-118.03,335.27h-171.52l45.71-128.41h-26.77l-45.75,128.41h-172.03L552.51,30.14c3.98-11.27,9.22-21.33,15.68-30.14h-15.93l-129.05,365.15h-171.51l44.72-125.01h-26.81l-44.68,125.01H52.86L181.91,0h-12.2L40.66,365.15H0v10.26h19.73c9.66,0,18.4,1.51,26.24,4.55,7.89,3.07,14.12,7.71,18.76,13.94,4.68,6.28,7.45,14.04,8.31,23.35.91,9.27-.78,20.01-5.06,32.14L0,642.46v34.04l80.41-226.17c4.1-12.13,9.65-22.87,16.66-32.14,7-9.31,14.93-17.07,23.76-23.35,8.82-6.23,18.24-10.87,28.19-13.94,9.96-3.03,19.94-4.55,29.95-4.55h222.4c9.66,0,18.43,1.52,26.36,4.55,7.89,3.07,14.24,7.71,18.97,13.94,4.74,6.28,7.63,14.04,8.68,23.35,1.01,9.27-.51,20.01-4.61,32.14l-31.35,90.1h-171.39l26.15-74.04c1.71-4.28,1.31-7.32-1.23-9.09-2.54-1.78-5.58-2.69-9.18-2.69-3.2,0-6.48.91-9.87,2.69-3.36,1.77-5.56,4.81-6.53,9.09l-82.24,228.52c-2.09,4.98-1.95,8.1.41,9.36,2.31,1.25,5.09,1.86,8.34,1.86,3.55,0,7.01-.61,10.41-1.86,3.36-1.26,5.91-4.38,7.61-9.36l34.73-98.56h171.52l-39.87,114.11c-4.09,12.47-9.6,23.3-16.65,32.4-6.96,9.14-14.9,16.8-23.72,23.04-8.87,6.28-18.24,10.91-28.2,13.95-9.96,3.03-19.76,4.54-29.42,4.54H37.88c-10,0-18.99-1.51-26.88-4.54-4.1-1.57-7.76-3.58-11-6.01v50.51l10.04-27.88h171.51l-100.2,283.53h12.2l100.2-283.53h172.03l-72.49,204.11h26.81l72.49-204.11h171.52l-100.2,283.53h11.17l73.78-209.55c4.29-12.13,10-22.87,17.15-32.14,7.15-9.31,15.16-17.06,24.13-23.34,8.92-6.24,18.36-10.87,28.36-13.95,10.01-3.03,20.01-4.55,30.02-4.55h222.45c9.66,0,18.4,1.52,26.24,4.55,7.89,3.08,14.12,7.71,18.76,13.95,4.68,6.28,7.45,14.03,8.31,23.34.91,9.27-.78,20.01-5.06,32.14l-73.78,209.55h12.04l74.17-208.61c4.1-12.13,9.65-22.87,16.66-32.14,7-9.31,14.93-17.06,23.76-23.34,8.82-6.24,18.24-10.87,28.2-13.95,9.95-3.03,19.94-4.55,29.94-4.55h222.4c9.66,0,18.44,1.52,26.37,4.55,7.88,3.08,14.23,7.71,18.97,13.95,4.73,6.28,7.62,14.03,8.67,23.34,1.01,9.27-.51,20.01-4.61,32.14l-31.35,90.11h-171.39l26.15-74.04c1.71-4.29,1.31-7.32-1.23-9.1-2.54-1.77-5.58-2.68-9.18-2.68-3.2,0-6.48.91-9.87,2.68-3.35,1.78-5.56,4.81-6.53,9.1l-69.29,192.54h26.5l22.06-62.59h171.51l-21.87,62.59h15.27l100.17-283.53h172.04l-83.95,233.18,42.88-46.08h4.85l11.26,46.08,83.95-233.18h171.51l-100.2,283.53h12.2l100.2-283.53h162.3v-79.8c-3.8,9.88-8.57,18.64-14.42,26.19-6.96,9.14-14.9,16.8-23.72,23.04-8.87,6.28-18.24,10.91-28.2,13.95-9.96,3.03-19.77,4.54-29.42,4.54h-222.41c-10,0-18.99-1.51-26.88-4.54-7.93-3.04-14.24-7.67-18.97-13.95-4.73-6.24-7.62-13.9-8.67-23.04-1.05-9.1.47-19.93,4.56-32.4l92.49-260.13ZM595.92,784.39l-18.23-78.26h-4.81l-71.85,78.26h-153.8l144.49-408.98h172.04l-83.95,233.18,42.88-46.08h4.85l11.26,46.08,83.95-233.18h171.51l-144.54,408.98h-153.8ZM960.76,784.39l44.72-125.01h-26.81l-44.67,125.01h-172.08l144.54-408.98h172.03l-72.49,204.11h26.81l72.49-204.11h171.52l-144.54,408.98h-171.52ZM1513.89,784.65h-171.51l45.7-128.41h-26.76l-45.75,128.41h-172.04l118.04-335.26c4.29-12.13,10-22.87,17.15-32.14,7.15-9.31,15.16-17.07,24.12-23.35,8.93-6.23,18.37-10.87,28.37-13.94,10.01-3.04,20.01-4.55,30.02-4.55h222.45c9.65,0,18.4,1.51,26.24,4.55,7.89,3.07,14.12,7.71,18.76,13.94,4.67,6.28,7.45,14.04,8.31,23.35.91,9.27-.78,20.01-5.06,32.14l-118.04,335.26ZM1453.96,456.36c-2.51-1.78-5.55-2.69-9.1-2.69-3.2,0-6.54.91-9.92,2.69-3.37,1.77-5.63,4.81-6.71,9.09l-40.15,113.04h26.81l40.15-113.04c1.78-4.28,1.43-7.32-1.08-9.09ZM1453.96,456.36c-2.51-1.78-5.55-2.69-9.1-2.69-3.2,0-6.54.91-9.92,2.69-3.37,1.77-5.63,4.81-6.71,9.09l-40.15,113.04h26.81l40.15-113.04c1.78-4.28,1.43-7.32-1.08-9.09ZM1453.96,456.36c-2.51-1.78-5.55-2.69-9.1-2.69-3.2,0-6.54.91-9.92,2.69-3.37,1.77-5.63,4.81-6.71,9.09l-40.15,113.04h26.81l40.15-113.04c1.78-4.28,1.43-7.32-1.08-9.09ZM741.25,877.42c-2.51-1.77-5.55-2.68-9.1-2.68-3.2,0-6.54.91-9.91,2.68-3.38,1.78-5.64,4.81-6.72,9.1l-40.14,113.04h26.81l40.14-113.04c1.78-4.29,1.43-7.32-1.08-9.1ZM1453.96,456.36c-2.51-1.78-5.55-2.69-9.1-2.69-3.2,0-6.54.91-9.92,2.69-3.37,1.77-5.63,4.81-6.71,9.09l-40.15,113.04h26.81l40.15-113.04c1.78-4.28,1.43-7.32-1.08-9.09ZM1453.96,456.36c-2.51-1.78-5.55-2.69-9.1-2.69-3.2,0-6.54.91-9.92,2.69-3.37,1.77-5.63,4.81-6.71,9.09l-40.15,113.04h26.81l40.15-113.04c1.78-4.28,1.43-7.32-1.08-9.09ZM744.89,37.12c-2.51-1.78-5.54-2.69-9.09-2.69-3.21,0-6.54.91-9.92,2.69-3.38,1.77-5.63,4.81-6.71,9.09l-40.15,113.04h26.81l40.15-113.04c1.77-4.28,1.43-7.32-1.09-9.09ZM741.25,877.42c-2.51-1.77-5.55-2.68-9.1-2.68-3.2,0-6.54.91-9.91,2.68-3.38,1.78-5.64,4.81-6.72,9.1l-40.14,113.04h26.81l40.14-113.04c1.78-4.29,1.43-7.32-1.08-9.1ZM1453.96,456.36c-2.51-1.78-5.55-2.69-9.1-2.69-3.2,0-6.54.91-9.92,2.69-3.37,1.77-5.63,4.81-6.71,9.09l-40.15,113.04h26.81l40.15-113.04c1.78-4.28,1.43-7.32-1.08-9.09ZM744.89,37.12c-2.51-1.78-5.54-2.69-9.09-2.69-3.21,0-6.54.91-9.92,2.69-3.38,1.77-5.63,4.81-6.71,9.09l-40.15,113.04h26.81l40.15-113.04c1.77-4.28,1.43-7.32-1.09-9.09ZM1917.81,0l-56.92,160.28h26.81l32.3-90.96V0h-2.19ZM741.25,877.42c-2.51-1.77-5.55-2.68-9.1-2.68-3.2,0-6.54.91-9.91,2.68-3.38,1.78-5.64,4.81-6.72,9.1l-40.14,113.04h26.81l40.14-113.04c1.78-4.29,1.43-7.32-1.08-9.1ZM648.61,1077.3l-.96,2.7h26.77l.96-2.7h-26.77ZM1502.86,0l-68.16,189.35,42.87-46.08h4.86l11.26,46.08L1561.85,0h-58.99ZM1811.98,540.43l26.15-74.04c1.71-4.28,1.31-7.32-1.23-9.09-2.54-1.78-5.58-2.69-9.18-2.69-3.2,0-6.48.91-9.87,2.69-3.36,1.77-5.56,4.81-6.53,9.09l-82.24,228.52c-2.09,4.98-1.95,8.1.41,9.36,2.31,1.25,5.09,1.86,8.34,1.86,3.55,0,7.01-.61,10.41-1.86,3.36-1.26,5.91-4.38,7.61-9.36l34.73-98.56h129.42v-55.92h-108.02ZM1857.24,1000.58h26.81l35.95-101.22v-75.48l-62.76,176.7ZM1920,796.47v27.41l9.73-27.41h-9.73Z"/>
</svg>